<?xml version="1.0" encoding="UTF-8"?>
<svg id="Layer_1" xmlns="http://www.w3.org/2000/svg" viewBox="0 0 404.62 239.5">
  <defs>
    <style>
      .cls-1 {
        fill: #ffffff;
      }
    </style>
  </defs>
  <path class="cls-1" d="M399.56,141.1c0-46-49.45-52.21-49.45-85.33,0-11.5,4.6-15.87,12.65-15.87s12.65,4.37,12.65,15.87v6.67h23.92v-5.06c0-25.76-12.65-40.48-37.26-40.48s-37.26,14.72-37.26,40.48c0,46,49.45,52.21,49.45,85.33,0,11.5-5.06,15.64-13.11,15.64s-13.11-4.14-13.11-15.64v-11.5h-23.92v9.89c0,4.3.37,8.28,1.08,11.94,4.23-2.66,7.66-3.98,10.4-3.98.88,0,1.71.13,2.46.39.72.23,1.41.55,2.05.96.22.13.43.27.64.41.14.1.29.21.43.32l37.08,25.8c.56.39,1.05.83,1.5,1.31,13.08-5.7,19.8-18.54,19.8-37.14Z"/>
  <g>
    <path class="cls-1" d="M343.83,167.7c-.02-.15-.04-.29-.06-.44-.03-.18-.07-.35-.11-.52-.11-.48-.27-.94-.49-1.36-1.36-2.84-7.36-4.44-12.37-5.3-4.71-.8-9.56.04-13.72,2.41-4.34,2.48-9.34,5.95-9.74,9.02-.12.63-.13,1.29,0,1.96l8.07,44.97s0,.03,0,.05,0,.03,0,.05l.04.23c.27,1.48,1.1,2.71,2.24,3.51,3.46,3,10.24,4.14,17.65,2.81,7.35-1.32,13.28-4.7,15.52-8.68.84-1.16,1.22-2.64.95-4.16l-7.99-44.56ZM325.34,169.24c-1.24.22-2.42-.6-2.64-1.84-.22-1.24.6-2.42,1.84-2.64,1.24-.22,2.42.6,2.64,1.84.22,1.24-.6,2.42-1.84,2.64Z"/>
    <path class="cls-1" d="M63.19,217.11c-3.27,2.63-6.22,4.68-9.49,4.68-8.21,0-12.57-13.14-15.39-23.66,19.88-.64,58.73-20.45,58.73-32.19,0-3.01-1.67-9.81-13.98-9.81-6.48,0-12.95.77-19.04,2.12,1.99-1.8,3.98-3.53,6.03-5.26.83-.71,1.09-.32,1.28-.51.13-.13.32-.64.32-1.15.06-2.05-.58-2.56-1.6-2.44-1.41.13-7.44,5.32-13.79,11.28-21.29,6.41-37.44,18.72-37.44,25.9,0,2.95,5.45,3.59,4.3,1.22-2.24-4.55,9.81-14.68,27.31-21.35-1.92,1.86-3.66,3.65-5.19,5.32-18.08,18.91-36.87,43.15-42.38,57.51-1.22,3.33,3.01,3.4,3.4,2.12.45-1.22,2.56-4.87,6.28-9.3,3.59-4.23,7.37-9.04,5.19-7.31-3.08,2.44-4.94,3.98-6.28,4.94-1.35.96,2.82-4.23,5.45-8.33,2.24-3.53,18.15-25.58,41.68-47.7,7.76-2.24,16.22-3.65,24.81-3.65s10,3.72,10,5.9c0,9.62-33.85,28.4-55.85,29.88-.38-1.15-.9-2.12-1.79-2.12-1.67,0-3.01,1.92-3.01,3.46,0,.96,1.09,1.86,2.69,1.92,2.5,10,6.6,26.42,17.38,26.42,4.75,0,8.01-3.14,9.49-5.13,2.5-3.33,1.54-3.27.9-2.76Z"/>
    <path class="cls-1" d="M127.23,200.44c-8.91,8.08-12.82,11.16-13.66,10.58-1.09-.77,9.04-16.29,12.44-20,6.16-5.45,26.54-26.54,26.35-30.71-.06-1.09-.9-2.18-2.37-2.12-3.37.18-21.21,22.69-32.06,38.87-.02.02-.04.03-.06.05-2.24,2.24-17.95,17.38-19.49,15.77-2.18-2.24,13.85-22.38,16.09-22.7,1.54-.19-1.15-3.46-2.5-2.63-1.09.64-2.44,2.12-3.53,3.4-.77-1.47-3.14-3.08-5.71-3.08-3.17,0-10.52,6.44-15.27,12.48-6.94,6.38-15.79,13.64-18.07,10.98-.96-1.09-.06-3.65,1.73-6.54,8.21-3.27,17.89-9.81,18.08-13.72.06-1.86-1.67-3.33-3.33-3.4-5.39-.19-19.81,14.94-20.07,22.38-.06,2.44,1.73,5.07,4.04,5.13,2.73.11,6.36-1.85,13.52-7.9-.16.52-.25,1-.25,1.43,0,2.31,1.73,4.04,3.21,4.04,2.12,0,7.95-5.13,12.82-9.68-2.69,4.04-4.17,7.25-4.17,10,0,1.47,1.54,3.65,3.08,3.65,2.57,0,9.52-6.26,14.34-10.9-1.88,3.26-2.98,5.7-2.93,6.79.06,1.41,1.09,2.95,2.5,2.89,2.76-.13,11.09-8.4,13.4-10.9,3.46-3.72,3.46-5.58,1.86-4.17ZM84.72,191.91c1.28,1.35-5.39,5.58-10.32,8.21,4.04-5.07,9.04-9.49,10.32-8.21ZM86.32,208.9c-1.47-1.99,11.73-17.57,16.35-17.57,1.47,0,2.76,1.47,3.01,2.12-2.76,3.27-18.21,16.99-19.36,15.45Z"/>
    <path class="cls-1" d="M141.65,205.12c2.44-2.76,3.14-4.17,2.24-3.53-2.24,1.54-13.47,11.28-14.43,10.32-1.15-1.15,5.96-11.61,13.46-20.84,3.01-.32,6.48,0,7.63.26.64.13,1.35-1.15,1.22-2.44-.13-1.22-3.59-.96-5-.9-.38,0-.71.06-1.09.06,5.45-5.26,14.49-14.43,14.49-16.16,0-.51-.38-1.67-1.54-1.54-3.78.45-11.8,10.77-16.67,16.99-.26.32-.45.58-.71.9-2.5.13-4.55.26-6.35.64-1.99.39-.13,3.14,1.73,2.95.58-.06,1.15-.13,1.99-.26-7.44,9.55-13.27,18.08-13.27,20.52,0,1.67,1.47,3.46,2.82,3.46,3.59,0,11.73-8.53,13.47-10.45Z"/>
    <path class="cls-1" d="M180,190.24c.71-.51-.64-2.89-2.18-2.89-2.18,0-3.33,2.56-6.48,4.49-3.46,2.82-22.63,17.57-23.6,16.8-.83-.71,4.17-6.86,6.67-9.81,2.5-3.01,6.8-8.01,8.08-8.21,1.67-.26-1.41-3.46-2.69-2.18-6.09,5.96-15.39,16.41-15.39,20.58,0,.96.51,2.95,2.37,2.95,3.33,0,13.79-8.4,20.52-13.46-2.5,3.33-5.45,7.31-9.3,12.31-.13.13-.26.32-.38.45-4.17.71-8.21,2.82-12.25,5.71-9.23,6.54-18.15,18.72-18.15,22.83,0,1.03.51,4.42,3.01,4.42,5.45,0,22.63-21.48,29.49-30.52h.39c1.86,0,3.91.26,5.45,2.05.58.71,1.22,1.28.9-.64-.26-1.54-1.73-3.53-4.81-3.98,3.21-4.17,11.35-14.17,16.16-19.23.71-.77,1.73-1.35,2.18-1.67ZM131.46,239.23c-1.35-1.35,4.87-11.8,14.3-19.11,3.08-2.44,6.22-4.36,9.23-5.45-7.82,9.87-21.8,26.22-23.53,24.56Z"/>
    <path class="cls-1" d="M239.5,165.11c26.34-.76,43.37,5.32,43.22,3.08-.1-1.41.51-2.69-1.67-3.01-3.98-.64-15-2.76-40.01-2.76-1.67,0-3.21,0-4.81.06,1.54-2.18,2.69-3.78,3.27-4.62.58-.77-.71-3.01-2.12-3.01-.38,0-.83.32-1.09.77-.51.9-1.41,2.44-4.42,6.93-35.33,1.09-50.59,8.4-50.59,11.54,0,1.73.77,2.5,2.12,2.5s2.18-1.79,2.82-2.56c.64-.77,2.44-1.99,8.14-3.85,8.08-2.63,21.99-4.3,35.59-4.87-2.37,3.46-15.41,20.62-14.75,20.13-1.59,1.99-3.57,4.44-5.75,7.11-15.18,11.91-31.12,24.5-31.12,29.83,0,3.21.77,4.49,2.82,4.49,6.6,0,50.97-58.6,53.15-61.68,1.73-.06,3.46-.01,5.19-.06ZM183.84,220.44c-2.5-1.58,8.62-11,17.68-18.35-8.27,9.8-16.57,19.06-17.68,18.35Z"/>
    <path class="cls-1" d="M83.26,163.13c-7.44.01-15.12,1.11-22.86,3.28-4.75,4.5-9.19,8.99-13.26,13.33h3.28c16.17,0,27.07-5.74,32.84-16.61Z"/>
    <path class="cls-1" d="M54.42,156.97c.45-.42.87-.81,1.29-1.2-1.67.66-3.58.97-5.75.97h-14.26V41.74h14.26c8.05,0,12.88,4.14,12.88,15.64v83.72c0,4.32-.68,7.6-1.96,10.01,6.35-5.51,7.76-5.71,8.8-5.81.23-.03.44-.04.65-.04,1.33,0,2.55.5,3.43,1.41,1.56,1.61,1.52,3.9,1.49,4.71,0,.46-.07.98-.21,1.5,2.69-.24,5.37-.37,8.03-.37,1.39,0,2.66.08,3.85.23.82-3.88,1.23-8.15,1.23-12.81V58.53c0-25.76-12.42-39.79-37.72-39.79H10.41v161h6.97c5.68-8.88,21.74-18.01,37.04-22.77Z"/>
    <path class="cls-1" d="M32.26,179.74h.35c.22-.25.45-.52.67-.77-.36.26-.69.51-1.02.77Z"/>
    <path class="cls-1" d="M229.9,159.01c2.24-3.38,2.92-4.57,3.27-5.18.91-1.59,2.52-2.58,4.22-2.58,2.09,0,4.13,1.39,5.21,3.53.69,1.38.83,2.81.42,4.04,2.84.01,5.49.05,7.97.11l21.63-140.19h-23.23l-19.32,131.33-19.32-131.33h-25.53l21.95,142.26c6.1-.9,13.61-1.65,22.75-2Z"/>
    <path class="cls-1" d="M214.81,179.74c1.31-1.77,2.97-4,4.67-6.29,1.04-1.39,2.09-2.8,3.07-4.12-5,.36-9.69.86-13.88,1.47l1.38,8.94h4.76Z"/>
    <path class="cls-1" d="M239.6,168.7c-.84.02-1.68.03-2.52.03-.31,0-.63,0-.94,0-1.55,2.07-4.55,6.03-8.39,11h20.01l1.7-11c-1.74-.06-3.52-.1-5.36-.1-1.46,0-2.97.02-4.5.06Z"/>
    <path class="cls-1" d="M378.48,183.49c-.23-1.41-1-2.73-2.27-3.61l-37.16-25.85c-.12-.09-.23-.18-.35-.26-.15-.1-.3-.2-.45-.29-.42-.27-.86-.47-1.31-.61-2.41-.85-6.4,1.04-10.03,3.34.13,0,.26-.01.4-.01,1.37,0,2.74.12,4.09.35,8.51,1.45,13.27,3.75,14.98,7.23.35.67.61,1.39.78,2.14.06.23.11.47.16.71.03.19.06.37.08.54l7.72,43.05c1.23.86,2.69,1.13,4.06.89,4.56-.33,10.17-4.32,14.47-10.49,4.27-6.13,6.07-12.72,4.84-17.12Z"/>
    <path class="cls-1" d="M303.78,170.95c.38-2.6,2.27-5.17,5.86-7.9V18.74h-25.3v143.93c1.14.84,2.06,2.29,1.98,4.79,0,.15-.02.31,0,.47.08,1.11-.29,2.16-1.05,2.96-.29.31-.6.54-.93.73v8.11h20.46l-1.01-5.62c-.19-1.05-.19-2.11,0-3.17Z"/>
    <path class="cls-1" d="M124.94,150.53h31.05l2.43,16.25c.14,0,.27-.02.4-.02,3.07,0,4.96,2.67,4.96,5.15,0,.91,0,2.11-3.64,6.39l.22,1.44h20.73c-1.91-.78-3.42-2.6-3.42-5.66,0-1.08,0-3.81,6.21-6.88l-23.75-148.46h-37.03l-22.99,143.66c.46,1.58.53,2.91.53,3.54,0,2.14-.8,4.29-2.11,6.38l-1.19,7.42h23.23l4.37-29.21ZM140.35,47.26l12.19,81.42h-24.38l12.19-81.42Z"/>
    <path class="cls-1" d="M297.82,197.1c-2.24,2.24-14.94,14.49-16.16,13.21-1.6-1.67,9.17-15.45,9.17-17.44,0-1.22-.71-2.37-1.99-2.37-1.54,0-8.66,5.51-15.96,11.99,4.42-6.22,9.1-12.7,9.1-13.66,0-.83-1.03-2.05-2.12-2.05-1.99,0-12.7,8.59-21.29,16.29,4.62-6.6,9.62-11.8,10.26-11.86,1.92-.13-.19-3.33-1.54-3.33-1.57,0-4.14,4.15-8.13,9.41-2.77,2.74-17.81,17.16-19.31,15.6-2.18-2.24,13.85-22.38,16.09-22.7,1.54-.19-1.15-3.46-2.5-2.63-1.09.64-2.44,2.12-3.53,3.4-.77-1.47-3.14-3.08-5.71-3.08-3.17,0-10.52,6.43-15.27,12.48-6.94,6.38-15.79,13.64-18.07,10.98-.96-1.09-.06-3.65,1.73-6.54,8.21-3.27,17.89-9.81,18.08-13.72.06-1.86-1.67-3.33-3.33-3.4-5.39-.19-19.81,14.94-20.07,22.38-.06,2.44,1.73,5.07,4.04,5.13,2.73.11,6.36-1.85,13.52-7.9-.16.52-.25,1-.25,1.43,0,2.31,1.73,4.04,3.21,4.04,2.12,0,7.95-5.13,12.82-9.68-2.69,4.04-4.17,7.25-4.17,10,0,1.47,1.54,3.65,3.08,3.65,2.21,0,7.67-4.64,12.23-8.89-1.92,2.94-3.25,5.22-3.31,5.75-.26,1.99,2.76,4.17,3.33,3.14,5-8.78,22.63-23.66,23.15-23.15.71.71-11.35,15.77-11.35,17.76,0,1.47,1.6,2.82,2.31,2.82.77,0,3.33-4.42,7.57-8.33,2.5-2.31,11.41-9.87,11.8-9.36.32.38-7.44,10.19-7.44,14.04,0,1.48,1.54,3.65,3.59,3.65,4.04,0,14.75-11.99,15.96-13.14,1.79-1.6,1.6-5.07.45-3.91ZM226.2,191.91c1.28,1.35-5.39,5.58-10.32,8.21,4.04-5.07,9.04-9.49,10.32-8.21ZM227.8,208.9c-1.47-1.99,11.73-17.57,16.35-17.57,1.47,0,2.76,1.47,3.01,2.12-2.76,3.27-18.21,16.99-19.36,15.45Z"/>
  </g>
</svg>